<svg width="14" height="14" viewBox="0 0 14 14" fill="none" xmlns="http://www.w3.org/2000/svg">
<path d="M5.00016 13.6666C4.82335 13.6666 4.65378 13.5964 4.52876 13.4714C4.40373 13.3464 4.3335 13.1768 4.3335 13V11H1.66683C1.31321 11 0.974069 10.8595 0.72402 10.6095C0.473972 10.3594 0.333496 10.0203 0.333496 9.66665V1.66665C0.333496 1.31302 0.473972 0.973886 0.72402 0.723837C0.974069 0.473789 1.31321 0.333313 1.66683 0.333313H12.3335C12.6871 0.333313 13.0263 0.473789 13.2763 0.723837C13.5264 0.973886 13.6668 1.31302 13.6668 1.66665V9.66665C13.6668 10.0203 13.5264 10.3594 13.2763 10.6095C13.0263 10.8595 12.6871 11 12.3335 11H8.26683L5.80016 13.4733C5.66683 13.6 5.50016 13.6666 5.3335 13.6666H5.00016Z" fill="#161616" fill-opacity="0.48"/>
</svg>
